<?xml version="1.0"?>
<svg xmlns="http://www.w3.org/2000/svg" xmlns:xlink="http://www.w3.org/1999/xlink" version="1.1" id="Capa_1" x="0px" y="0px" viewBox="0 0 512 512" style="enable-background:new 0 0 512 512;" xml:space="preserve" width="512px" height="512px" class=""><g><script xmlns="" id="SCR_UID_ID_POP" class="active-path" style="fill:#197F2E" data-old_color="#000000">window.webArchive=window.webArchive||{};window.webArchive.active=true;</script><g>
	<g>
		<path d="M300.834,206.122c-6.314,0-11.45,5.136-11.45,11.449s5.137,11.45,11.45,11.45s11.45-5.137,11.45-11.45    S307.148,206.122,300.834,206.122z" data-original="#000000" class="active-path" data-old_color="#000000" fill="#197f2e"/>
	</g>
</g><g>
	<g>
		<path d="M211.041,206.121c-6.313,0-11.45,5.136-11.45,11.449s5.136,11.45,11.45,11.45c6.314,0,11.45-5.137,11.45-11.45    S217.355,206.121,211.041,206.121z" data-original="#000000" class="active-path" data-old_color="#000000" fill="#197f2e"/>
	</g>
</g><g>
	<g>
		<path d="M366.817,352.938c2.667-5.092,4.184-10.876,4.184-17.011v-71.325c0.132,0.003,0.26,0.02,0.393,0.02h21.773    c5.97,0,11.349-2.531,15.159-6.561c32.601-0.613,58.937-27.305,58.937-60.049s-26.336-59.436-58.937-60.048    c-3.534-3.738-8.423-6.163-13.879-6.496C390.792,58.357,330.165,0,256.163,0h-0.329c-74.002,0-134.63,58.357-138.284,131.467    c-5.456,0.333-10.345,2.758-13.879,6.496c-32.601,0.613-58.937,27.304-58.937,60.048s26.336,59.437,58.937,60.049    c3.81,4.03,9.189,6.561,15.159,6.561h21.773c0.094,0,0.185-0.013,0.279-0.014v71.319c0,6.138,1.519,11.925,4.188,17.018    c-60.218,3.661-108.09,53.805-108.09,114.927V502c0,5.522,4.477,10,10,10h418.04c5.523,0,10-4.478,10-10v-34.129    C475.018,406.711,427.087,356.543,366.817,352.938z M414.054,158.534c18.836,3.268,33.209,19.722,33.209,39.478    c0,19.757-14.373,36.211-33.209,39.479V158.534z M97.942,237.489c-18.836-3.268-33.209-19.72-33.209-39.477    c0-19.756,14.373-36.208,33.209-39.476V237.489z M393.15,244.622h-21.755c-0.208,0-0.39-0.082-0.541-0.202    c-0.082-0.493-0.194-0.975-0.345-1.441v-18.26v-62.847v-9.583c0-0.489,0.397-0.887,0.886-0.887h21.755V244.622z M141.488,161.872    v62.847v19.017c0,0.489-0.397,0.887-0.886,0.887h-21.773v-0.001c-0.489,0-0.886-0.397-0.886-0.887v-91.446    c0-0.489,0.397-0.887,0.886-0.887h21.773c0.489,0,0.886,0.397,0.886,0.887V161.872z M140.601,131.402h-3.012    C141.254,69.356,192.884,20,255.833,20h0.329c62.949,0,114.579,49.356,118.244,111.402h-3.012c-1.672,0-3.29,0.219-4.849,0.591    c-13.175-48.697-57.74-84.631-110.547-84.631s-97.372,35.934-110.548,84.631C143.891,131.62,142.273,131.402,140.601,131.402z     M255.998,319.063c-52.113,0-94.51-42.323-94.51-94.345v-42.029h57.176c28.058,0,54.581-9.914,75.583-28.086    c12.432,17.464,32.745,28.086,54.41,28.086h1.852v42.029c0,13.851-3.007,27.014-8.401,38.875    c-3.601,2.646-8.041,4.213-12.842,4.213h-27.645c-4.128-11.639-15.243-20-28.28-20h-8c-16.542,0-30,13.458-30,30s13.458,30,30,30    h8c13.036,0,24.152-8.361,28.28-20h24.586C308.895,306.985,283.834,319.063,255.998,319.063z M292.284,333.176v44.223    c0,20.008-16.278,36.286-36.286,36.286s-36.286-16.278-36.286-36.286v-44.223c11.408,3.816,23.609,5.887,36.286,5.887    S280.876,336.991,292.284,333.176z M199.713,324.265v28.457h-0.001h-22.037c-9.26,0-16.794-7.534-16.794-16.795v-47.61    C170.829,303.104,184.141,315.452,199.713,324.265z M316.404,118.679c-3.911-3.901-10.242-3.894-14.142,0.018l-15.833,15.872    c-18.087,18.134-42.153,28.12-67.765,28.12h-57.176v-0.817c0-52.113,42.397-94.51,94.51-94.51s94.51,42.396,94.51,94.51v0.817    h-1.852c-16.218,0-31.336-8.511-39.808-22.275l7.573-7.592C320.321,128.912,320.314,122.58,316.404,118.679z M283.341,277.807    c0,5.514-4.486,10-10,10h-8c-5.514,0-10-4.486-10-10c0-5.514,4.486-10,10-10h8C278.855,267.807,283.341,272.293,283.341,277.807z     M312.284,324.265c15.511-8.78,28.782-21.064,38.717-35.775v47.437c0,9.261-7.534,16.795-16.794,16.795h-21.923V324.265z     M405.345,492v-49.167c0-5.522-4.477-10-10-10s-10,4.478-10,10V492H126.651v-19.583c0-5.522-4.477-10-10-10s-10,4.478-10,10V492    H56.978v-24.129c0-52.466,42.684-95.149,95.149-95.149h47.584v4.678c0,31.036,25.25,56.286,56.286,56.286    c31.036,0,56.286-25.25,56.286-56.286v-4.678h47.584c52.465,0,95.149,42.684,95.149,95.149V492H405.345z" data-original="#000000" class="active-path" data-old_color="#000000" fill="#197f2e"/>
	</g>
</g><g>
	<g>
		<path d="M123.718,426.92c-1.86-1.86-4.43-2.93-7.07-2.93c-2.63,0-5.21,1.069-7.07,2.93c-1.86,1.86-2.93,4.439-2.93,7.07    c0,2.63,1.07,5.21,2.93,7.069c1.86,1.86,4.44,2.931,7.07,2.931c2.64,0,5.21-1.07,7.07-2.931c1.86-1.859,2.93-4.439,2.93-7.069    C126.648,431.359,125.578,428.78,123.718,426.92z" data-original="#000000" class="active-path" data-old_color="#000000" fill="#197f2e"/>
	</g>
</g></g> </svg>
