<?xml version="1.0"?>
<svg xmlns="http://www.w3.org/2000/svg" xmlns:xlink="http://www.w3.org/1999/xlink" version="1.1" id="Capa_1" x="0px" y="0px" viewBox="0 0 512 512" style="enable-background:new 0 0 512 512;" xml:space="preserve" width="512px" height="512px" class=""><g><script xmlns="" id="SCR_UID_ID_POP" class="active-path" style="fill:#197F2E" data-old_color="#000000">window.webArchive=window.webArchive||{};window.webArchive.active=true;</script><g>
	<g>
		<path d="M347.705,372.8l-55.364-55.36c-15.193-15.192-39.912-15.192-55.105,0l-18.011,18.011    c-2.224,2.224-5.182,3.449-8.327,3.449s-6.104-1.225-8.327-3.45l-66.148-66.148c-2.225-2.225-3.45-5.182-3.45-8.328    c0-2.909,1.06-5.65,2.978-7.806c0.143-0.127,0.289-0.248,0.426-0.385c0.263-0.263,0.504-0.538,0.732-0.821l17.326-17.326    c15.192-15.193,15.192-39.913,0-55.105L99.12,124.217c-7.876-7.876-18.768-12.007-29.887-11.342    c-11.117,0.667-21.438,6.074-28.314,14.834L29.04,142.841c-42.496,54.133-37.845,131.651,10.818,180.315l108.906,108.906    c26.396,26.396,61.271,39.84,96.309,39.84c23.802,0,47.681-6.215,69.014-18.788c6.463,7.986,6.103,17.501,3.375,24.084    c-2.964,7.156-10.34,14.802-22.152,14.802h-66.776c-5.522,0-10,4.477-10,10c0,5.523,4.478,10,10,10h66.776    c18.125,0,33.694-10.402,40.63-27.148c6.114-14.76,3.997-30.776-5.367-43.144l13.639-10.707    c8.761-6.878,14.168-17.199,14.835-28.317C359.715,391.568,355.58,380.675,347.705,372.8z M56.648,140.059    c3.396-4.326,8.291-6.89,13.781-7.22c5.496-0.331,10.658,1.631,14.547,5.521l55.315,55.315c3.582,3.582,5.555,8.344,5.555,13.41    s-1.973,9.829-5.555,13.41l-11.031,11.031l-80.904-80.904L56.648,140.059z M162.905,417.921L53.998,309.014    c-38.06-38.059-44.554-96.805-17.438-141.903l79.725,79.725c-2.161,4.34-3.312,9.15-3.312,14.14c0,8.488,3.306,16.468,9.308,22.47    l66.148,66.148c6.002,6.002,13.981,9.308,22.47,9.308c4.99,0,9.8-1.151,14.141-3.312l79.77,79.77    C259.709,462.474,200.965,455.979,162.905,417.921z M339.08,401.489c-0.329,5.491-2.894,10.386-7.221,13.783l-10.562,8.292    l-80.95-80.95l11.03-11.031c7.393-7.396,19.426-7.395,26.82,0l55.361,55.361C337.448,390.833,339.409,395.998,339.08,401.489z" data-original="#000000" class="active-path" data-old_color="#000000" fill="#197f2e"/>
	</g>
</g><g>
	<g>
		<path d="M146.863,353.476l-60.344-60.345c-3.906-3.905-10.236-3.905-14.143,0c-3.905,3.905-3.905,10.237,0,14.143l60.345,60.345    c1.953,1.953,4.512,2.929,7.071,2.929c2.559,0,5.118-0.976,7.071-2.929C150.768,363.714,150.768,357.382,146.863,353.476z" data-original="#000000" class="active-path" data-old_color="#000000" fill="#197f2e"/>
	</g>
</g><g>
	<g>
		<path d="M178.243,384.858c-1.861-1.86-4.44-2.93-7.07-2.93c-2.63,0-5.21,1.07-7.069,2.93c-1.86,1.86-2.931,4.44-2.931,7.07    c0,2.63,1.07,5.21,2.931,7.07c1.859,1.86,4.43,2.93,7.069,2.93c2.63,0,5.21-1.07,7.07-2.93s2.93-4.44,2.93-7.07    C181.173,389.298,180.104,386.718,178.243,384.858z" data-original="#000000" class="active-path" data-old_color="#000000" fill="#197f2e"/>
	</g>
</g><g>
	<g>
		<path d="M437.982,0H245.983c-40.804,0-74,33.196-74,74v79c0,40.804,33.196,74,74,74h80.558v28.095    c0,4.044,2.437,7.691,6.173,9.239c1.237,0.513,2.537,0.762,3.825,0.762c2.603,0,5.16-1.017,7.073-2.929l35.166-35.167h59.204    c40.804,0,74-33.196,74-74V74C511.982,33.196,478.785,0,437.982,0z M491.982,152.999c0,29.776-24.225,54-54,54h-63.347    c-2.652,0-5.195,1.054-7.071,2.929l-21.024,21.024v-13.953c0-5.523-4.478-10-10-10h-90.557c-29.775,0-54-24.224-54-54V74    c0-29.776,24.225-54,54-54h191.999c29.775,0,54,24.224,54,54V152.999z" data-original="#000000" class="active-path" data-old_color="#000000" fill="#197f2e"/>
	</g>
</g><g>
	<g>
		<path d="M279.52,139.499h-21.079c12.04-11.595,24.249-26.847,24.249-41.024c0-18.528-12.448-30.976-30.976-30.976    c-17.08,0-30.977,13.896-30.977,30.976c0,5.523,4.478,10,10,10s10-4.477,10-10c0-6.052,4.924-10.976,10.977-10.976    c9.838,0,10.976,6.264,10.976,10.976c0,10.946-22.52,32.052-37.737,42.868c-3.551,2.519-5.064,7.044-3.743,11.192    c1.322,4.147,5.175,6.964,9.528,6.964h48.782c5.522,0,10-4.477,10-10C289.52,143.976,285.042,139.499,279.52,139.499z" data-original="#000000" class="active-path" data-old_color="#000000" fill="#197f2e"/>
	</g>
</g><g>
	<g>
		<path d="M329.463,96.144c-5.522,0-10,4.477-10,10v6.983h-9.778l17.453-30.684c2.73-4.801,1.053-10.906-3.748-13.637    c-4.798-2.729-10.905-1.054-13.637,3.748L283.8,118.182c-1.761,3.096-1.742,6.894,0.048,9.972    c1.791,3.078,5.083,4.972,8.645,4.972h26.971v16.373c0,5.523,4.478,10,10,10s10-4.477,10-10v-43.355    C339.463,100.621,334.985,96.144,329.463,96.144z" data-original="#000000" class="active-path" data-old_color="#000000" fill="#197f2e"/>
	</g>
</g><g>
	<g>
		<path d="M394.099,68.167c-5.157-1.983-10.94,0.587-12.924,5.742l-27.7,72c-1.983,5.155,0.588,10.941,5.742,12.924    c1.182,0.455,2.395,0.67,3.589,0.67c4.017,0,7.807-2.439,9.335-6.412l27.7-72C401.824,75.936,399.253,70.15,394.099,68.167z" data-original="#000000" class="active-path" data-old_color="#000000" fill="#197f2e"/>
	</g>
</g><g>
	<g>
		<path d="M461.439,71.793c-1.87-2.689-4.937-4.293-8.212-4.293h-35.163c-5.522,0-10,4.477-10,10c0,5.523,4.478,10,10,10h20.772    l-21.772,58.513c-1.926,5.176,0.709,10.934,5.885,12.859c1.149,0.428,2.327,0.631,3.486,0.631c4.058,0,7.875-2.489,9.373-6.516    l26.791-72C463.742,77.917,463.308,74.483,461.439,71.793z" data-original="#000000" class="active-path" data-old_color="#000000" fill="#197f2e"/>
	</g>
</g><g>
	<g>
		<path d="M199.387,494.926l-24.798-24.799c-3.905-3.905-10.235-3.905-14.143,0c-3.905,3.905-3.905,10.237,0,14.142l24.799,24.799    c1.953,1.953,4.512,2.929,7.071,2.929c2.559,0,5.118-0.977,7.071-2.929C203.291,505.163,203.291,498.831,199.387,494.926z" data-original="#000000" class="active-path" data-old_color="#000000" fill="#197f2e"/>
	</g>
</g><g>
	<g>
		<path d="M148.775,494.926l-24.798-24.799c-3.905-3.905-10.235-3.905-14.143,0c-3.905,3.905-3.905,10.237,0,14.142l24.799,24.799    c1.953,1.953,4.512,2.929,7.071,2.929c2.559,0,5.118-0.977,7.071-2.929C152.68,505.163,152.68,498.831,148.775,494.926z" data-original="#000000" class="active-path" data-old_color="#000000" fill="#197f2e"/>
	</g>
</g><g>
	<g>
		<path d="M98.162,494.926l-24.798-24.799c-3.905-3.905-10.235-3.905-14.143,0c-3.905,3.905-3.905,10.237,0,14.142l24.799,24.799    c1.953,1.953,4.512,2.929,7.071,2.929s5.118-0.977,7.071-2.929C102.067,505.163,102.067,498.831,98.162,494.926z" data-original="#000000" class="active-path" data-old_color="#000000" fill="#197f2e"/>
	</g>
</g></g> </svg>
